<mxfile host="Electron" agent="Mozilla/5.0 (Macintosh; Intel Mac OS X 10_15_7) AppleWebKit/537.36 (KHTML, like Gecko) draw.io/27.0.9 Chrome/134.0.6998.205 Electron/35.4.0 Safari/537.36" version="27.0.9" pages="3">
  <diagram name="Solr Types" id="B6yHBA0yNes8BWCViT4E">
    <mxGraphModel dx="880" dy="622" grid="1" gridSize="10" guides="1" tooltips="1" connect="1" arrows="1" fold="1" page="1" pageScale="1" pageWidth="827" pageHeight="1169" math="0" shadow="0">
      <root>
        <mxCell id="0" />
        <mxCell id="1" parent="0" />
        <mxCell id="3NF6qjgnj08wNpHQOnpI-2" value="&lt;p style=&quot;margin:0px;margin-top:4px;text-align:center;&quot;&gt;&lt;i&gt;&amp;lt;&amp;lt;Interface&amp;gt;&amp;gt;&lt;/i&gt;&lt;br&gt;&lt;b&gt;AdlType&lt;/b&gt;&lt;/p&gt;&lt;p style=&quot;margin:0px;margin-left:4px;&quot;&gt;&lt;br&gt;&lt;/p&gt;" style="verticalAlign=top;align=left;overflow=fill;html=1;whiteSpace=wrap;" parent="1" vertex="1">
          <mxGeometry x="18" y="30" width="191" height="40" as="geometry" />
        </mxCell>
        <mxCell id="3NF6qjgnj08wNpHQOnpI-20" value="&lt;p style=&quot;margin:0px;margin-top:4px;text-align:center;&quot;&gt;&lt;i&gt;&amp;lt;&amp;lt;enum&amp;gt;&amp;gt;&lt;/i&gt;&lt;br&gt;&lt;b&gt;DefaultAdlSolrType&lt;/b&gt;&lt;/p&gt;&lt;hr size=&quot;1&quot; style=&quot;border-style:solid;&quot;&gt;&lt;p style=&quot;margin:0px;margin-left:4px;&quot;&gt;&lt;br&gt;&lt;/p&gt;" style="verticalAlign=top;align=left;overflow=fill;html=1;whiteSpace=wrap;fillColor=#ffe6cc;strokeColor=#d79b00;" parent="1" vertex="1">
          <mxGeometry x="19" y="380" width="190" height="50" as="geometry" />
        </mxCell>
        <mxCell id="3NF6qjgnj08wNpHQOnpI-21" value="" style="endArrow=block;dashed=1;endFill=0;endSize=12;html=1;rounded=0;entryX=0.774;entryY=0.969;entryDx=0;entryDy=0;exitX=0.25;exitY=0;exitDx=0;exitDy=0;entryPerimeter=0;" parent="1" source="VzG3GhmJKx8q3InaAPFt-4" target="3NF6qjgnj08wNpHQOnpI-22" edge="1">
          <mxGeometry width="160" relative="1" as="geometry">
            <mxPoint x="160" y="380" as="sourcePoint" />
            <mxPoint x="310" y="340" as="targetPoint" />
          </mxGeometry>
        </mxCell>
        <mxCell id="3NF6qjgnj08wNpHQOnpI-22" value="&lt;p style=&quot;margin:0px;margin-top:4px;text-align:center;&quot;&gt;&lt;i&gt;&amp;lt;&amp;lt;Interface&amp;gt;&amp;gt;&lt;/i&gt;&lt;br&gt;&lt;b&gt;AdlSolrType&lt;/b&gt;&lt;/p&gt;&lt;p style=&quot;margin:0px;margin-left:4px;&quot;&gt;&lt;br&gt;&lt;/p&gt;" style="verticalAlign=top;align=left;overflow=fill;html=1;whiteSpace=wrap;fillColor=#dae8fc;strokeColor=#6c8ebf;" parent="1" vertex="1">
          <mxGeometry x="19" y="200" width="191" height="40" as="geometry" />
        </mxCell>
        <mxCell id="3NF6qjgnj08wNpHQOnpI-23" value="" style="endArrow=block;endFill=0;endSize=12;html=1;rounded=0;exitX=0.5;exitY=0;exitDx=0;exitDy=0;" parent="1" source="3NF6qjgnj08wNpHQOnpI-22" target="3NF6qjgnj08wNpHQOnpI-2" edge="1">
          <mxGeometry width="160" relative="1" as="geometry">
            <mxPoint x="629" y="285" as="sourcePoint" />
            <mxPoint x="120" y="340" as="targetPoint" />
          </mxGeometry>
        </mxCell>
        <mxCell id="VzG3GhmJKx8q3InaAPFt-8" value="extends" style="edgeLabel;html=1;align=center;verticalAlign=middle;resizable=0;points=[];" parent="3NF6qjgnj08wNpHQOnpI-23" vertex="1" connectable="0">
          <mxGeometry x="-0.4984" relative="1" as="geometry">
            <mxPoint x="-24" y="-5" as="offset" />
          </mxGeometry>
        </mxCell>
        <mxCell id="VzG3GhmJKx8q3InaAPFt-2" value="&lt;span style=&quot;font-size: 10px;&quot;&gt;AdlSolrType represents the available native data types. &lt;br&gt;To create an extendable type system this is an interface.&lt;/span&gt;&lt;div&gt;&lt;span style=&quot;font-size: 10px;&quot;&gt;&lt;br&gt;&lt;/span&gt;&lt;/div&gt;&lt;div&gt;&lt;span style=&quot;font-size: 10px;&quot;&gt;Dynamic type decoration allows to quickly create custom types by decorating an existing type with adjusted behavior (formatting).&lt;/span&gt;&lt;/div&gt;" style="shape=note;whiteSpace=wrap;html=1;backgroundOutline=1;darkOpacity=0.05;size=13;labelBackgroundColor=none;fillColor=#FFFFCC;gradientColor=none;align=left;" parent="1" vertex="1">
          <mxGeometry x="370" y="240" width="300" height="90" as="geometry" />
        </mxCell>
        <mxCell id="VzG3GhmJKx8q3InaAPFt-3" style="rounded=0;orthogonalLoop=1;jettySize=auto;html=1;entryX=1;entryY=0.5;entryDx=0;entryDy=0;endArrow=none;endFill=0;dashed=1;exitX=-0.001;exitY=0.203;exitDx=0;exitDy=0;exitPerimeter=0;" parent="1" source="VzG3GhmJKx8q3InaAPFt-2" target="3NF6qjgnj08wNpHQOnpI-22" edge="1">
          <mxGeometry relative="1" as="geometry">
            <mxPoint x="525" y="426" as="sourcePoint" />
            <mxPoint x="469" y="430" as="targetPoint" />
            <Array as="points">
              <mxPoint x="310" y="220" />
            </Array>
          </mxGeometry>
        </mxCell>
        <mxCell id="VzG3GhmJKx8q3InaAPFt-4" value="&lt;p style=&quot;margin:0px;margin-top:4px;text-align:center;&quot;&gt;&lt;i&gt;&amp;lt;&amp;lt;class&amp;gt;&amp;gt;&lt;/i&gt;&lt;br&gt;&lt;b&gt;AdlSolrTypeDecorator&lt;/b&gt;&lt;/p&gt;&lt;p style=&quot;margin:0px;margin-left:4px;&quot;&gt;&lt;br&gt;&lt;/p&gt;" style="verticalAlign=top;align=left;overflow=fill;html=1;whiteSpace=wrap;fillColor=#ffe6cc;strokeColor=#d79b00;" parent="1" vertex="1">
          <mxGeometry x="120" y="310" width="190" height="40" as="geometry" />
        </mxCell>
        <mxCell id="VzG3GhmJKx8q3InaAPFt-5" style="rounded=0;orthogonalLoop=1;jettySize=auto;html=1;entryX=1;entryY=0.75;entryDx=0;entryDy=0;endArrow=open;endFill=0;strokeWidth=2;exitX=0.75;exitY=0;exitDx=0;exitDy=0;" parent="1" source="VzG3GhmJKx8q3InaAPFt-4" target="3NF6qjgnj08wNpHQOnpI-22" edge="1">
          <mxGeometry relative="1" as="geometry">
            <mxPoint x="120" y="280" as="sourcePoint" />
            <mxPoint x="490" y="240" as="targetPoint" />
            <Array as="points">
              <mxPoint x="262" y="230" />
            </Array>
          </mxGeometry>
        </mxCell>
        <mxCell id="VzG3GhmJKx8q3InaAPFt-6" value="delegate" style="edgeLabel;html=1;align=center;verticalAlign=middle;resizable=0;points=[];" parent="VzG3GhmJKx8q3InaAPFt-5" vertex="1" connectable="0">
          <mxGeometry x="-0.3978" relative="1" as="geometry">
            <mxPoint x="-32" y="30" as="offset" />
          </mxGeometry>
        </mxCell>
        <mxCell id="VzG3GhmJKx8q3InaAPFt-7" style="rounded=0;orthogonalLoop=1;jettySize=auto;html=1;entryX=0.843;entryY=0.005;entryDx=0;entryDy=0;endArrow=none;endFill=0;dashed=1;exitX=0;exitY=0.653;exitDx=0;exitDy=0;exitPerimeter=0;entryPerimeter=0;" parent="1" source="VzG3GhmJKx8q3InaAPFt-2" target="VzG3GhmJKx8q3InaAPFt-4" edge="1">
          <mxGeometry relative="1" as="geometry">
            <mxPoint x="320" y="255" as="sourcePoint" />
            <mxPoint x="220" y="230" as="targetPoint" />
          </mxGeometry>
        </mxCell>
        <mxCell id="VzG3GhmJKx8q3InaAPFt-9" value="" style="endArrow=block;dashed=1;endFill=0;endSize=12;html=1;rounded=0;entryX=0.25;entryY=1;entryDx=0;entryDy=0;exitX=0.25;exitY=0;exitDx=0;exitDy=0;" parent="1" source="3NF6qjgnj08wNpHQOnpI-20" target="3NF6qjgnj08wNpHQOnpI-22" edge="1">
          <mxGeometry width="160" relative="1" as="geometry">
            <mxPoint x="178" y="320" as="sourcePoint" />
            <mxPoint x="177" y="249" as="targetPoint" />
          </mxGeometry>
        </mxCell>
        <mxCell id="VzG3GhmJKx8q3InaAPFt-12" style="rounded=0;orthogonalLoop=1;jettySize=auto;html=1;entryX=1;entryY=0.5;entryDx=0;entryDy=0;dashed=1;endArrow=none;endFill=0;exitX=0;exitY=0.5;exitDx=0;exitDy=0;exitPerimeter=0;" parent="1" source="VzG3GhmJKx8q3InaAPFt-10" target="3NF6qjgnj08wNpHQOnpI-20" edge="1">
          <mxGeometry relative="1" as="geometry" />
        </mxCell>
        <mxCell id="VzG3GhmJKx8q3InaAPFt-10" value="&lt;span style=&quot;font-size: 10px;&quot;&gt;A set of common Solr-types for easy mapping of native types to ADL-types&lt;/span&gt;" style="shape=note;whiteSpace=wrap;html=1;backgroundOutline=1;darkOpacity=0.05;size=13;labelBackgroundColor=none;fillColor=#FFFFCC;gradientColor=none;align=left;" parent="1" vertex="1">
          <mxGeometry x="310" y="390" width="260" height="40" as="geometry" />
        </mxCell>
        <mxCell id="EDahRD0NgZOyH85qTdH9-1" value="&lt;p style=&quot;margin:0px;margin-top:4px;text-align:center;&quot;&gt;&lt;i&gt;&amp;lt;&amp;lt;enum&amp;gt;&amp;gt;&lt;/i&gt;&lt;br&gt;&lt;b&gt;DefaultSolrFormatter&lt;/b&gt;&lt;/p&gt;&lt;hr size=&quot;1&quot; style=&quot;border-style:solid;&quot;&gt;&lt;p style=&quot;margin:0px;margin-left:4px;&quot;&gt;&lt;br&gt;&lt;/p&gt;" style="verticalAlign=top;align=left;overflow=fill;html=1;whiteSpace=wrap;fillColor=#ffe6cc;strokeColor=#d79b00;" parent="1" vertex="1">
          <mxGeometry x="310" y="110" width="190" height="50" as="geometry" />
        </mxCell>
        <mxCell id="EDahRD0NgZOyH85qTdH9-2" value="&lt;p style=&quot;margin:0px;margin-top:4px;text-align:center;&quot;&gt;&lt;i&gt;&amp;lt;&amp;lt;Interface&amp;gt;&amp;gt;&lt;/i&gt;&lt;br&gt;&lt;b&gt;ArgValueFormatter&lt;/b&gt;&lt;/p&gt;&lt;p style=&quot;margin:0px;margin-left:4px;&quot;&gt;&lt;br&gt;&lt;/p&gt;" style="verticalAlign=top;align=left;overflow=fill;html=1;whiteSpace=wrap;" parent="1" vertex="1">
          <mxGeometry x="310" y="30" width="191" height="40" as="geometry" />
        </mxCell>
        <mxCell id="EDahRD0NgZOyH85qTdH9-3" value="" style="endArrow=block;dashed=1;endFill=0;endSize=12;html=1;rounded=0;entryX=0.5;entryY=1;entryDx=0;entryDy=0;exitX=0.5;exitY=0;exitDx=0;exitDy=0;" parent="1" source="EDahRD0NgZOyH85qTdH9-1" target="EDahRD0NgZOyH85qTdH9-2" edge="1">
          <mxGeometry width="160" relative="1" as="geometry">
            <mxPoint x="178" y="320" as="sourcePoint" />
            <mxPoint x="177" y="249" as="targetPoint" />
          </mxGeometry>
        </mxCell>
        <mxCell id="EDahRD0NgZOyH85qTdH9-6" style="rounded=0;orthogonalLoop=1;jettySize=auto;html=1;entryX=1;entryY=0.5;entryDx=0;entryDy=0;endArrow=none;endFill=0;dashed=1;" parent="1" source="EDahRD0NgZOyH85qTdH9-4" target="EDahRD0NgZOyH85qTdH9-1" edge="1">
          <mxGeometry relative="1" as="geometry" />
        </mxCell>
        <mxCell id="EDahRD0NgZOyH85qTdH9-4" value="&lt;span style=&quot;font-size: 10px;&quot;&gt;Set of formatters for&lt;br&gt;a set of common Solr-Types.&lt;/span&gt;&lt;div&gt;&lt;br&gt;&lt;/div&gt;" style="shape=note;whiteSpace=wrap;html=1;backgroundOutline=1;darkOpacity=0.05;size=13;labelBackgroundColor=none;fillColor=#FFFFCC;gradientColor=none;align=left;verticalAlign=top;" parent="1" vertex="1">
          <mxGeometry x="530" y="50" width="140" height="40" as="geometry" />
        </mxCell>
      </root>
    </mxGraphModel>
  </diagram>
  <diagram id="x_Kza-SuOTrE1SJIn9SX" name="SolrQueryDefinition">
    <mxGraphModel dx="880" dy="622" grid="1" gridSize="10" guides="1" tooltips="1" connect="1" arrows="1" fold="1" page="1" pageScale="1" pageWidth="1654" pageHeight="1169" math="0" shadow="0">
      <root>
        <mxCell id="0" />
        <mxCell id="1" parent="0" />
        <mxCell id="N31PKQU9wOpDDSwR-wtu-2" value="&lt;span style=&quot;font-size: 10px;&quot;&gt;A&amp;nbsp;&lt;b&gt;SolrQueryDefinition&lt;/b&gt; instance is the &lt;b&gt;outcome&lt;/b&gt; of the conversion process.&lt;/span&gt;&lt;div&gt;&lt;span style=&quot;font-size: 10px;&quot;&gt;Each either contains a single filter query&amp;nbsp;or a set of filter queries to be intersected&lt;/span&gt;&lt;/div&gt;&lt;div&gt;&lt;span style=&quot;font-size: 10px;&quot;&gt;by Solr. For each filter query there is meta data included to allow any executor component to estimate the cost and its value to decide about caching.&lt;/span&gt;&lt;/div&gt;" style="shape=note;whiteSpace=wrap;html=1;backgroundOutline=1;darkOpacity=0.05;size=13;labelBackgroundColor=none;fillColor=#FFFFCC;gradientColor=none;align=left;verticalAlign=top;" vertex="1" parent="1">
          <mxGeometry x="120" y="30" width="430" height="70" as="geometry" />
        </mxCell>
        <mxCell id="0sh7ht2r96gM8eVfNPps-1" value="&lt;p style=&quot;margin:0px;margin-top:4px;text-align:center;&quot;&gt;&lt;i&gt;&amp;lt;&amp;lt;record&amp;gt;&amp;gt;&lt;/i&gt;&lt;br&gt;&lt;b&gt;SolrQueryField&lt;/b&gt;&lt;br&gt;&lt;/p&gt;&lt;hr size=&quot;1&quot; style=&quot;border-style:solid;&quot;&gt;&lt;p style=&quot;margin: 0px 0px 0px 4px;&quot;&gt;+ nodeType : String&lt;/p&gt;&lt;p style=&quot;margin: 0px 0px 0px 4px;&quot;&gt;+ fieldName : String&lt;/p&gt;" style="verticalAlign=top;align=left;overflow=fill;html=1;whiteSpace=wrap;fillColor=#ffe6cc;strokeColor=#d79b00;" vertex="1" parent="1">
          <mxGeometry x="400" y="330" width="150" height="90" as="geometry" />
        </mxCell>
        <mxCell id="0sh7ht2r96gM8eVfNPps-2" value="&lt;p style=&quot;margin:0px;margin-top:4px;text-align:center;&quot;&gt;&lt;i&gt;&amp;lt;&amp;lt;record&amp;gt;&amp;gt;&lt;/i&gt;&lt;br&gt;&lt;b&gt;SolrQueryDefinition&lt;/b&gt;&lt;br&gt;&lt;/p&gt;&lt;hr size=&quot;1&quot; style=&quot;border-style:solid;&quot;&gt;&lt;p style=&quot;margin: 0px 0px 0px 4px;&quot;&gt;+ mainQueryString : String&lt;/p&gt;&lt;p style=&quot;margin: 0px 0px 0px 4px;&quot;&gt;+ uniqueKeyFieldName : String&lt;/p&gt;&lt;hr size=&quot;1&quot; style=&quot;border-style:solid;&quot;&gt;&lt;p style=&quot;margin: 0px 0px 0px 4px;&quot;&gt;nodeTypesInvolved() : List&amp;lt;String&amp;gt;&lt;/p&gt;" style="verticalAlign=top;align=left;overflow=fill;html=1;whiteSpace=wrap;fillColor=#ffe6cc;strokeColor=#d79b00;" vertex="1" parent="1">
          <mxGeometry x="120" y="110" width="200" height="120" as="geometry" />
        </mxCell>
        <mxCell id="gNuvypAW551Rn5w1sx8y-1" value="&lt;p style=&quot;margin:0px;margin-top:4px;text-align:center;&quot;&gt;&lt;i&gt;&amp;lt;&amp;lt;enum&amp;gt;&amp;gt;&lt;/i&gt;&lt;br&gt;&lt;b&gt;SolrConditionType&lt;/b&gt;&lt;/p&gt;&lt;hr size=&quot;1&quot; style=&quot;border-style:solid;&quot;&gt;&lt;p style=&quot;margin:0px;margin-left:4px;&quot;&gt;&lt;br&gt;&lt;/p&gt;" style="verticalAlign=top;align=left;overflow=fill;html=1;whiteSpace=wrap;fillColor=#ffe6cc;strokeColor=#d79b00;" vertex="1" parent="1">
          <mxGeometry x="400" y="250" width="150" height="60" as="geometry" />
        </mxCell>
        <mxCell id="gNuvypAW551Rn5w1sx8y-2" value="&lt;p style=&quot;margin:0px;margin-top:4px;text-align:center;&quot;&gt;&lt;i&gt;&amp;lt;&amp;lt;record&amp;gt;&amp;gt;&lt;/i&gt;&lt;br&gt;&lt;b&gt;SolrFilterQuery&lt;/b&gt;&lt;br&gt;&lt;/p&gt;&lt;hr size=&quot;1&quot; style=&quot;border-style:solid;&quot;&gt;&lt;p style=&quot;margin: 0px 0px 0px 4px;&quot;&gt;+ queryString : String&lt;/p&gt;&lt;p style=&quot;margin: 0px 0px 0px 4px;&quot;&gt;&lt;br&gt;&lt;/p&gt;" style="verticalAlign=top;align=left;overflow=fill;html=1;whiteSpace=wrap;fillColor=#ffe6cc;strokeColor=#d79b00;" vertex="1" parent="1">
          <mxGeometry x="120" y="330" width="150" height="90" as="geometry" />
        </mxCell>
        <mxCell id="gNuvypAW551Rn5w1sx8y-3" value="" style="endArrow=diamondThin;endFill=1;endSize=24;html=1;rounded=0;entryX=1;entryY=0.75;entryDx=0;entryDy=0;exitX=0;exitY=0.75;exitDx=0;exitDy=0;strokeWidth=2;" edge="1" parent="1" source="0sh7ht2r96gM8eVfNPps-1" target="gNuvypAW551Rn5w1sx8y-2">
          <mxGeometry width="160" relative="1" as="geometry">
            <mxPoint x="360" y="300" as="sourcePoint" />
            <mxPoint x="520" y="300" as="targetPoint" />
          </mxGeometry>
        </mxCell>
        <mxCell id="gNuvypAW551Rn5w1sx8y-5" value="fields" style="edgeLabel;html=1;align=center;verticalAlign=middle;resizable=0;points=[];" vertex="1" connectable="0" parent="gNuvypAW551Rn5w1sx8y-3">
          <mxGeometry x="-0.8505" relative="1" as="geometry">
            <mxPoint x="-80" y="10" as="offset" />
          </mxGeometry>
        </mxCell>
        <mxCell id="gNuvypAW551Rn5w1sx8y-6" value="1..*" style="edgeLabel;html=1;align=center;verticalAlign=middle;resizable=0;points=[];fontSize=12;labelBackgroundColor=none;" vertex="1" connectable="0" parent="gNuvypAW551Rn5w1sx8y-3">
          <mxGeometry x="-0.8066" y="1" relative="1" as="geometry">
            <mxPoint x="-4" y="-12" as="offset" />
          </mxGeometry>
        </mxCell>
        <mxCell id="SCJxR0IMRP-oTtNpPsNu-2" value="" style="endArrow=diamondThin;endFill=0;endSize=24;html=1;rounded=0;entryX=1;entryY=0.25;entryDx=0;entryDy=0;exitX=0;exitY=0.5;exitDx=0;exitDy=0;strokeWidth=2;" edge="1" parent="1" source="gNuvypAW551Rn5w1sx8y-1" target="gNuvypAW551Rn5w1sx8y-2">
          <mxGeometry width="160" relative="1" as="geometry">
            <mxPoint x="420" y="380" as="sourcePoint" />
            <mxPoint x="290" y="380" as="targetPoint" />
            <Array as="points">
              <mxPoint x="360" y="280" />
              <mxPoint x="360" y="353" />
            </Array>
          </mxGeometry>
        </mxCell>
        <mxCell id="SCJxR0IMRP-oTtNpPsNu-3" value="conditionTypes" style="edgeLabel;html=1;align=center;verticalAlign=middle;resizable=0;points=[];" vertex="1" connectable="0" parent="SCJxR0IMRP-oTtNpPsNu-2">
          <mxGeometry x="-0.8505" relative="1" as="geometry">
            <mxPoint x="-65" y="50" as="offset" />
          </mxGeometry>
        </mxCell>
        <mxCell id="SCJxR0IMRP-oTtNpPsNu-4" value="1..*" style="edgeLabel;html=1;align=center;verticalAlign=middle;resizable=0;points=[];fontSize=12;labelBackgroundColor=none;" vertex="1" connectable="0" parent="SCJxR0IMRP-oTtNpPsNu-2">
          <mxGeometry x="-0.8066" y="1" relative="1" as="geometry">
            <mxPoint x="-11" y="-11" as="offset" />
          </mxGeometry>
        </mxCell>
        <mxCell id="SCJxR0IMRP-oTtNpPsNu-5" value="" style="endArrow=diamondThin;endFill=1;endSize=24;html=1;rounded=0;entryX=0.374;entryY=0.996;entryDx=0;entryDy=0;exitX=0.5;exitY=0;exitDx=0;exitDy=0;strokeWidth=2;entryPerimeter=0;" edge="1" parent="1" source="gNuvypAW551Rn5w1sx8y-2" target="0sh7ht2r96gM8eVfNPps-2">
          <mxGeometry width="160" relative="1" as="geometry">
            <mxPoint x="460" y="390" as="sourcePoint" />
            <mxPoint x="330" y="390" as="targetPoint" />
          </mxGeometry>
        </mxCell>
        <mxCell id="SCJxR0IMRP-oTtNpPsNu-6" value="filterQueries" style="edgeLabel;html=1;align=center;verticalAlign=middle;resizable=0;points=[];labelBackgroundColor=none;" vertex="1" connectable="0" parent="SCJxR0IMRP-oTtNpPsNu-5">
          <mxGeometry x="-0.8505" relative="1" as="geometry">
            <mxPoint x="-41" y="-73" as="offset" />
          </mxGeometry>
        </mxCell>
        <mxCell id="SCJxR0IMRP-oTtNpPsNu-7" value="1..*" style="edgeLabel;html=1;align=center;verticalAlign=middle;resizable=0;points=[];fontSize=12;labelBackgroundColor=none;" vertex="1" connectable="0" parent="SCJxR0IMRP-oTtNpPsNu-5">
          <mxGeometry x="-0.8066" y="1" relative="1" as="geometry">
            <mxPoint x="-14" y="-4" as="offset" />
          </mxGeometry>
        </mxCell>
        <mxCell id="SCJxR0IMRP-oTtNpPsNu-9" style="rounded=0;orthogonalLoop=1;jettySize=auto;html=1;endArrow=none;startFill=0;dashed=1;exitX=0.16;exitY=1.011;exitDx=0;exitDy=0;exitPerimeter=0;strokeWidth=1;" edge="1" parent="1" source="SCJxR0IMRP-oTtNpPsNu-8">
          <mxGeometry relative="1" as="geometry">
            <mxPoint x="380" y="280" as="targetPoint" />
          </mxGeometry>
        </mxCell>
        <mxCell id="SCJxR0IMRP-oTtNpPsNu-8" value="&lt;span style=&quot;font-size: 10px;&quot;&gt;List of a filter query&#39;s condition types (basic operations).&lt;/span&gt;&lt;div&gt;&lt;span style=&quot;font-size: 10px;&quot;&gt;E.g., simple comparison, range query, contains text, frange, etc.&lt;/span&gt;&lt;/div&gt;" style="shape=note;whiteSpace=wrap;html=1;backgroundOutline=1;darkOpacity=0.05;size=13;labelBackgroundColor=none;fillColor=#FFFFCC;gradientColor=none;align=left;verticalAlign=top;" vertex="1" parent="1">
          <mxGeometry x="370" y="160" width="180" height="70" as="geometry" />
        </mxCell>
        <mxCell id="SCJxR0IMRP-oTtNpPsNu-11" value="&lt;span style=&quot;font-size: 10px;&quot;&gt;usually &lt;b&gt;&lt;font face=&quot;Courier New&quot;&gt;*.*&lt;/font&gt;&lt;/b&gt;&amp;nbsp;(&lt;font face=&quot;Courier New&quot;&gt;q=*.*&lt;/font&gt;&lt;font face=&quot;Helvetica&quot;&gt;, no scoring&lt;/font&gt;)&lt;/span&gt;" style="shape=note;whiteSpace=wrap;html=1;backgroundOutline=1;darkOpacity=0.05;size=13;labelBackgroundColor=none;fillColor=#FFFFCC;gradientColor=none;align=left;verticalAlign=top;" vertex="1" parent="1">
          <mxGeometry x="340" y="120" width="170" height="30" as="geometry" />
        </mxCell>
        <mxCell id="SCJxR0IMRP-oTtNpPsNu-12" style="rounded=0;orthogonalLoop=1;jettySize=auto;html=1;endArrow=oval;startFill=0;dashed=1;exitX=0;exitY=0.5;exitDx=0;exitDy=0;exitPerimeter=0;strokeWidth=1;entryX=0.75;entryY=0.417;entryDx=0;entryDy=0;entryPerimeter=0;endFill=1;" edge="1" parent="1" source="SCJxR0IMRP-oTtNpPsNu-11" target="0sh7ht2r96gM8eVfNPps-2">
          <mxGeometry relative="1" as="geometry">
            <mxPoint x="580" y="309" as="targetPoint" />
            <mxPoint x="599" y="260" as="sourcePoint" />
          </mxGeometry>
        </mxCell>
        <mxCell id="dJ3fPKWfRSup3emek02r-1" style="rounded=0;orthogonalLoop=1;jettySize=auto;html=1;endArrow=oval;startFill=0;dashed=1;strokeWidth=1;entryX=0.533;entryY=0.556;entryDx=0;entryDy=0;entryPerimeter=0;endFill=1;exitX=0;exitY=0.5;exitDx=0;exitDy=0;exitPerimeter=0;" edge="1" parent="1" source="dJ3fPKWfRSup3emek02r-2" target="gNuvypAW551Rn5w1sx8y-2">
          <mxGeometry relative="1" as="geometry">
            <mxPoint x="470" y="155" as="targetPoint" />
            <mxPoint x="230" y="290" as="sourcePoint" />
          </mxGeometry>
        </mxCell>
        <mxCell id="dJ3fPKWfRSup3emek02r-2" value="&lt;span style=&quot;font-size: 10px;&quot;&gt;native query to be executed (&lt;font face=&quot;Courier New&quot;&gt;fq=&lt;/font&gt;...)&lt;/span&gt;" style="shape=note;whiteSpace=wrap;html=1;backgroundOutline=1;darkOpacity=0.05;size=13;labelBackgroundColor=none;fillColor=#FFFFCC;gradientColor=none;align=left;verticalAlign=top;" vertex="1" parent="1">
          <mxGeometry x="240" y="270" width="100" height="40" as="geometry" />
        </mxCell>
      </root>
    </mxGraphModel>
  </diagram>
  <diagram id="ghDfkuzM7oT6vlfFxHrg" name="Process Overview">
    <mxGraphModel dx="1283" dy="908" grid="1" gridSize="10" guides="1" tooltips="1" connect="1" arrows="1" fold="1" page="1" pageScale="1" pageWidth="1169" pageHeight="827" math="0" shadow="0">
      <root>
        <mxCell id="0" />
        <mxCell id="1" parent="0" />
        <mxCell id="CnBv8r-z8xxs7eIVJ4Ra-1" value="" style="shape=step;perimeter=stepPerimeter;whiteSpace=wrap;html=1;fixedSize=1;size=30;fillColor=#fff2cc;strokeColor=#d6b656;" parent="1" vertex="1">
          <mxGeometry x="235" y="190" width="130" height="80" as="geometry" />
        </mxCell>
        <mxCell id="CnBv8r-z8xxs7eIVJ4Ra-2" value="" style="shape=offPageConnector;whiteSpace=wrap;html=1;rotation=-90;size=0.15;fillColor=#fff2cc;strokeColor=#d6b656;" parent="1" vertex="1">
          <mxGeometry x="115" y="130" width="80" height="200" as="geometry" />
        </mxCell>
        <mxCell id="88fcjvAl9bjT-7IUq75g-1" value="Parse expression and build raw match tree" style="text;html=1;align=center;verticalAlign=middle;whiteSpace=wrap;rounded=0;fontSize=14;" parent="1" vertex="1">
          <mxGeometry x="60" y="215" width="180" height="30" as="geometry" />
        </mxCell>
        <mxCell id="88fcjvAl9bjT-7IUq75g-2" value="Consolidate&lt;br&gt;match tree" style="text;html=1;align=center;verticalAlign=middle;whiteSpace=wrap;rounded=0;fontSize=14;" parent="1" vertex="1">
          <mxGeometry x="245" y="215" width="120" height="30" as="geometry" />
        </mxCell>
        <mxCell id="88fcjvAl9bjT-7IUq75g-3" value="" style="shape=step;perimeter=stepPerimeter;whiteSpace=wrap;html=1;fixedSize=1;size=30;fillColor=#fff2cc;strokeColor=#d6b656;" parent="1" vertex="1">
          <mxGeometry x="345" y="190" width="130" height="80" as="geometry" />
        </mxCell>
        <mxCell id="88fcjvAl9bjT-7IUq75g-4" value="Generate&lt;div&gt;filter&lt;/div&gt;&lt;div&gt;queries&lt;/div&gt;" style="text;html=1;align=center;verticalAlign=middle;whiteSpace=wrap;rounded=0;fontSize=14;" parent="1" vertex="1">
          <mxGeometry x="383" y="200" width="60" height="60" as="geometry" />
        </mxCell>
        <mxCell id="88fcjvAl9bjT-7IUq75g-5" value="" style="shape=step;perimeter=stepPerimeter;whiteSpace=wrap;html=1;fixedSize=1;size=30;fillColor=#dae8fc;strokeColor=#6c8ebf;" parent="1" vertex="1">
          <mxGeometry x="455" y="190" width="130" height="80" as="geometry" />
        </mxCell>
        <mxCell id="88fcjvAl9bjT-7IUq75g-6" value="Create&lt;div&gt;Solr query&lt;/div&gt;&lt;div&gt;definition&lt;/div&gt;" style="text;html=1;align=center;verticalAlign=middle;whiteSpace=wrap;rounded=0;fontSize=14;" parent="1" vertex="1">
          <mxGeometry x="485" y="215" width="80" height="30" as="geometry" />
        </mxCell>
        <mxCell id="88fcjvAl9bjT-7IUq75g-7" value="" style="shape=step;perimeter=stepPerimeter;whiteSpace=wrap;html=1;fixedSize=1;size=30;fillColor=#e1d5e7;strokeColor=#9673a6;" parent="1" vertex="1">
          <mxGeometry x="565" y="190" width="130" height="80" as="geometry" />
        </mxCell>
        <mxCell id="88fcjvAl9bjT-7IUq75g-8" value="Apply&lt;div&gt;caching&lt;/div&gt;" style="text;html=1;align=center;verticalAlign=middle;whiteSpace=wrap;rounded=0;fontSize=14;fontColor=light-dark(#6c6c6c, #ededed);" parent="1" vertex="1">
          <mxGeometry x="595" y="215" width="80" height="30" as="geometry" />
        </mxCell>
        <mxCell id="88fcjvAl9bjT-7IUq75g-11" value="" style="shape=singleArrow;direction=south;whiteSpace=wrap;html=1;arrowWidth=0.4238095238095241;arrowSize=0.23571428571428613;fillColor=#b8b2b2;strokeColor=none;" parent="1" vertex="1">
          <mxGeometry x="81" y="70" width="60" height="110" as="geometry" />
        </mxCell>
        <mxCell id="88fcjvAl9bjT-7IUq75g-13" value="Expression" style="text;html=1;align=center;verticalAlign=middle;whiteSpace=wrap;rounded=0;fontSize=14;rotation=-90;fontColor=#ffffff;" parent="1" vertex="1">
          <mxGeometry x="65" y="99" width="90" height="30" as="geometry" />
        </mxCell>
        <mxCell id="88fcjvAl9bjT-7IUq75g-14" value="" style="shape=singleArrow;direction=south;whiteSpace=wrap;html=1;arrowWidth=0.4238095238095241;arrowSize=0.23571428571428613;fillColor=#b8b2b2;strokeColor=none;" parent="1" vertex="1">
          <mxGeometry x="155" y="70" width="60" height="110" as="geometry" />
        </mxCell>
        <mxCell id="88fcjvAl9bjT-7IUq75g-15" value="Mapping" style="text;html=1;align=center;verticalAlign=middle;whiteSpace=wrap;rounded=0;fontSize=14;rotation=-90;fontColor=#ffffff;" parent="1" vertex="1">
          <mxGeometry x="140" y="98" width="90" height="30" as="geometry" />
        </mxCell>
        <mxCell id="88fcjvAl9bjT-7IUq75g-23" value="downstream components" style="text;html=1;align=center;verticalAlign=middle;whiteSpace=wrap;rounded=0;fontSize=14;" parent="1" vertex="1">
          <mxGeometry x="585" y="265" width="200" height="30" as="geometry" />
        </mxCell>
        <mxCell id="88fcjvAl9bjT-7IUq75g-24" value="" style="shape=step;perimeter=stepPerimeter;whiteSpace=wrap;html=1;fixedSize=1;size=30;fillColor=#d5e8d4;strokeColor=#82b366;" parent="1" vertex="1">
          <mxGeometry x="675" y="190" width="130" height="80" as="geometry" />
        </mxCell>
        <mxCell id="88fcjvAl9bjT-7IUq75g-25" value="Execute&lt;div&gt;query&lt;/div&gt;" style="text;html=1;align=center;verticalAlign=middle;whiteSpace=wrap;rounded=0;fontSize=14;fontColor=light-dark(#6c6c6c, #ededed);" parent="1" vertex="1">
          <mxGeometry x="705" y="215" width="80" height="30" as="geometry" />
        </mxCell>
        <mxCell id="L-jlX7FHs50Xo8GS3oBe-1" value="&lt;span style=&quot;font-size: 10px;&quot;&gt;Based on the configured mapping information the converter creates one or multiple Solr filter queries to eventually return&lt;/span&gt;&lt;div&gt;&lt;span style=&quot;font-size: 10px;&quot;&gt;a &lt;b&gt;SolrQueryDefinition&lt;/b&gt; object.&amp;nbsp;&lt;/span&gt;&lt;span style=&quot;font-size: 10px; background-color: transparent; color: light-dark(rgb(0, 0, 0), rgb(255, 255, 255));&quot;&gt;The contained queries can then be sent to a Solr server to be executed. This avoids direct dependencies to a Solr infrastructure or a specific Solr version.&lt;/span&gt;&lt;/div&gt;" style="shape=note;whiteSpace=wrap;html=1;backgroundOutline=1;darkOpacity=0.05;size=13;labelBackgroundColor=none;fillColor=#FFFFCC;gradientColor=none;align=left;verticalAlign=top;" parent="1" vertex="1">
          <mxGeometry x="257.75" y="70" width="551.25" height="60" as="geometry" />
        </mxCell>
        <mxCell id="WtrozcoBe8EDEK5ga7qy-1" value="" style="shape=partialRectangle;whiteSpace=wrap;html=1;bottom=1;right=1;left=1;top=0;fillColor=none;routingCenterX=-0.5;rotation=90;strokeWidth=2;dashed=1;" vertex="1" parent="1">
          <mxGeometry x="519" y="222.25" width="100" height="15.5" as="geometry" />
        </mxCell>
        <mxCell id="WtrozcoBe8EDEK5ga7qy-2" value="" style="shape=partialRectangle;whiteSpace=wrap;html=1;bottom=1;right=1;left=1;top=0;fillColor=none;routingCenterX=-0.5;rotation=-90;strokeWidth=2;dashed=1;" vertex="1" parent="1">
          <mxGeometry x="751" y="222.25" width="100" height="15.5" as="geometry" />
        </mxCell>
      </root>
    </mxGraphModel>
  </diagram>
</mxfile>
